:FULLY-SPECIFIED
:FORCE-ALL-JOINTS-BE-3DOF
:DEGREES
194
root 8.24415 16.5964 -10.1182 7.44746 3.91265 -3.45226
lfemur -32.2715 3.20016 -15.3301
ltibia 33.8404 0 0
lfoot -10.0529 11.9631 0
ltoes -15.9451 0 0
rfemur -6.36474 3.79482 28.6619
rtibia 17.0367 0 0
rfoot -16.5321 3.4957 0
rtoes -10.8565 0 0
lowerback -5.66032 0.957272 1.4941
upperback -0.962743 1.09405 3.44415
thorax 2.18192 0.552277 2.82219
lowerneck -17.07 -6.83216 -14.502
upperneck 14.7469 -8.56152 14.9486
head 8.72458 -3.49048 6.40348
lclavicle 1.10423e-14 8.99863e-15 0
lhumerus -48.3413 -10.9263 96.3889
lradius 27.3132 0 0
lwrist 7.76086 0 0
lhand -8.83321 -22.4134 0
lfingers 7.12502 0 0
lthumb 17.1011 6.7784 0
rclavicle 1.10423e-14 8.99863e-15 0
rhumerus -38.4785 10.6615 -81.1942
rradius 47.1969 0 0
rwrist -24.706 0 0
rhand -31.7682 -28.3455 0
rfingers 7.12502 0 0
rthumb -5.02462 -58.2551 0
195
root 8.24499 16.5939 -9.9921 7.44304 3.72765 -3.53361
lfemur -33.1076 3.02848 -15.3639
ltibia 33.0524 0 0
lfoot -10.4594 11.9221 0
ltoes -16.0313 0 0
rfemur -5.64902 3.88149 28.8162
rtibia 16.6015 0 0
rfoot -16.6496 3.587 0
rtoes -10.7232 0 0
lowerback -5.69756 1.04588 1.55258
upperback -0.93914 1.20694 3.44264
thorax 2.22209 0.608699 2.79589
lowerneck -17.0157 -6.81911 -14.4997
upperneck 14.7523 -8.55359 14.9575
head 8.7157 -3.48799 6.4083
lclavicle 1.23004e-14 8.51379e-15 0
lhumerus -48.4405 -10.8643 96.3618
lradius 27.3365 0 0
lwrist 7.87842 0 0
lhand -9.10923 -22.5436 0
lfingers 7.12502 0 0
lthumb 16.8358 6.67511 0
rclavicle 1.23004e-14 8.51379e-15 0
rhumerus -38.248 10.6974 -81.1789
rradius 47.6201 0 0
rwrist -24.9022 0 0
rhand -31.8871 -28.4041 0
rfingers 7.12502 0 0
rthumb -5.13948 -58.3115 0
196
root 8.24584 16.5913 -9.86599 7.43862 3.54264 -3.61495
lfemur -33.9437 2.8568 -15.3978
ltibia 32.2645 0 0
lfoot -10.866 11.881 0
ltoes -16.1176 0 0
rfemur -4.9333 3.96817 28.9705
rtibia 16.1662 0 0
rfoot -16.767 3.67829 0
rtoes -10.5898 0 0
lowerback -5.7348 1.13448 1.61106
upperback -0.915537 1.31983 3.44114
thorax 2.26225 0.66512 2.7696
lowerneck -16.9614 -6.80605 -14.4973
upperneck 14.7576 -8.54565 14.9663
head 8.70682 -3.4855 6.41313
lclavicle 1.35586e-14 8.02895e-15 0
lhumerus -48.5398 -10.8024 96.3347
lradius 27.3597 0 0
lwrist 7.99598 0 0
lhand -9.38524 -22.6737 0
lfingers 7.12502 0 0
lthumb 16.5704 6.57182 0
rclavicle 1.35586e-14 8.02895e-15 0
rhumerus -38.0174 10.7332 -81.1637
rradius 48.0433 0 0
rwrist -25.0984 0 0
rhand -32.0061 -28.4628 0
rfingers 7.12502 0 0
rthumb -5.25435 -58.368 0
197
root 8.24668 16.5888 -9.73989 7.4342 3.35764 -3.6963
lfemur -34.7798 2.68511 -15.4316
ltibia 31.4765 0 0
lfoot -11.2725 11.8399 0
ltoes -16.2038 0 0
rfemur -4.21757 4.05484 29.1248
rtibia 15.731 0 0
rfoot -16.8844 3.76958 0
rtoes -10.4565 0 0
lowerback -5.77204 1.22308 1.66955
upperback -0.891934 1.43272 3.43963
thorax 2.30241 0.721542 2.7433
lowerneck -16.9071 -6.793 -14.495
upperneck 14.763 -8.53771 14.9752
head 8.69795 -3.48301 6.41795
lclavicle 1.48168e-14 7.54411e-15 0
lhumerus -48.639 -10.7405 96.3076
lradius 27.383 0 0
lwrist 8.11354 0 0
lhand -9.66126 -22.8039 0
lfingers 7.12502 0 0
lthumb 16.3051 6.46853 0
rclavicle 1.48168e-14 7.54411e-15 0
rhumerus -37.7869 10.769 -81.1484
rradius 48.4666 0 0
rwrist -25.2946 0 0
rhand -32.125 -28.5214 0
rfingers 7.12502 0 0
rthumb -5.36921 -58.4244 0
198
root 8.24753 16.5863 -9.61379 7.42978 3.17263 -3.77765
lfemur -35.6159 2.51343 -15.4654
ltibia 30.6885 0 0
lfoot -11.6791 11.7988 0
ltoes -16.29 0 0
rfemur -3.50185 4.14152 29.2791
rtibia 15.2957 0 0
rfoot -17.0019 3.86087 0
rtoes -10.3232 0 0
lowerback -5.80928 1.31168 1.72803
upperback -0.868331 1.54562 3.43813
thorax 2.34258 0.777964 2.717
lowerneck -16.8528 -6.77994 -14.4927
upperneck 14.7684 -8.52977 14.984
head 8.68907 -3.48051 6.42278
lclavicle 1.60749e-14 7.05927e-15 0
lhumerus -48.7383 -10.6786 96.2805
lradius 27.4063 0 0
lwrist 8.2311 0 0
lhand -9.93727 -22.9341 0
lfingers 7.12502 0 0
lthumb 16.0397 6.36524 0
rclavicle 1.60749e-14 7.05927e-15 0
rhumerus -37.5564 10.8048 -81.1331
rradius 48.8898 0 0
rwrist -25.4908 0 0
rhand -32.244 -28.5801 0
rfingers 7.12502 0 0
rthumb -5.48408 -58.4809 0
199
root 8.24837 16.5838 -9.48768 7.42536 2.98763 -3.859
lfemur -36.452 2.34175 -15.4992
ltibia 29.9005 0 0
lfoot -12.0856 11.7578 0
ltoes -16.3762 0 0
rfemur -2.78613 4.22819 29.4334
rtibia 14.8605 0 0
rfoot -17.1193 3.95217 0
rtoes -10.1899 0 0
lowerback -5.84652 1.40029 1.78651
upperback -0.844728 1.65851 3.43662
thorax 2.38274 0.834386 2.69071
lowerneck -16.7985 -6.76689 -14.4904
upperneck 14.7737 -8.52183 14.9929
head 8.68019 -3.47802 6.4276
lclavicle 1.73331e-14 6.57443e-15 0
lhumerus -48.8375 -10.6167 96.2533
lradius 27.4296 0 0
lwrist 8.34866 0 0
lhand -10.2133 -23.0642 0
lfingers 7.12502 0 0
lthumb 15.7744 6.26194 0
rclavicle 1.73331e-14 6.57443e-15 0
rhumerus -37.3259 10.8406 -81.1178
rradius 49.313 0 0
rwrist -25.687 0 0
rhand -32.3629 -28.6387 0
rfingers 7.12502 0 0
rthumb -5.59894 -58.5373 0
200
root 8.24922 16.5812 -9.36158 7.42094 2.80262 -3.94034
lfemur -37.2881 2.17006 -15.5331
ltibia 29.1125 0 0
lfoot -12.4921 11.7167 0
ltoes -16.4625 0 0
rfemur -2.07041 4.31487 29.5877
rtibia 14.4252 0 0
rfoot -17.2368 4.04346 0
rtoes -10.0566 0 0
lowerback -5.88376 1.48889 1.845
upperback -0.821125 1.7714 3.43512
thorax 2.4229 0.890808 2.66441
lowerneck -16.7442 -6.75383 -14.488
upperneck 14.7791 -8.5139 15.0017
head 8.67131 -3.47553 6.43243
lclavicle 1.85912e-14 6.08959e-15 0
lhumerus -48.9368 -10.5547 96.2262
lradius 27.4529 0 0
lwrist 8.46622 0 0
lhand -10.4893 -23.1944 0
lfingers 7.12502 0 0
lthumb 15.509 6.15865 0
rclavicle 1.85912e-14 6.08959e-15 0
rhumerus -37.0954 10.8765 -81.1025
rradius 49.7363 0 0
rwrist -25.8832 0 0
rhand -32.4819 -28.6974 0
rfingers 7.12502 0 0
rthumb -5.71381 -58.5938 0
201
root 8.25006 16.5787 -9.23548 7.41652 2.61762 -4.02169
lfemur -38.1242 1.99838 -15.5669
ltibia 28.3245 0 0
lfoot -12.8987 11.6756 0
ltoes -16.5487 0 0
rfemur -1.35468 4.40154 29.742
rtibia 13.99 0 0
rfoot -17.3542 4.13475 0
rtoes -9.92327 0 0
lowerback -5.92099 1.57749 1.90348
upperback -0.797522 1.88429 3.43361
thorax 2.46307 0.94723 2.63811
lowerneck -16.69 -6.74078 -14.4857
upperneck 14.7844 -8.50596 15.0106
head 8.66244 -3.47304 6.43725
lclavicle 1.98494e-14 5.60475e-15 0
lhumerus -49.036 -10.4928 96.1991
lradius 27.4762 0 0
lwrist 8.58378 0 0
lhand -10.7653 -23.3246 0
lfingers 7.12502 0 0
lthumb 15.2437 6.05536 0
rclavicle 1.98494e-14 5.60475e-15 0
rhumerus -36.8649 10.9123 -81.0872
rradius 50.1595 0 0
rwrist -26.0794 0 0
rhand -32.6008 -28.756 0
rfingers 7.12502 0 0
rthumb -5.82867 -58.6502 0
